<svg xmlns="http://www.w3.org/2000/svg" xmlns:xlink="http://www.w3.org/1999/xlink" viewBox="0 0 170.02 31.7"><defs><style>.cls-1{fill-rule:evenodd;fill:url(#linear-gradient);}.cls-2{fill:#fff;}</style><linearGradient id="linear-gradient" x1="15" y1="32" x2="15" y2="2" gradientTransform="matrix(1, 0, 0, -1, 0, 32)" gradientUnits="userSpaceOnUse"><stop offset="0" stop-color="#877eff"/><stop offset="0.46" stop-color="#685dff"/><stop offset="1" stop-color="#3121ff"/></linearGradient></defs><g id="Layer_2" data-name="Layer 2"><g id="Layer_1-2" data-name="Layer 1"><path class="cls-1" d="M27.83,15A12.83,12.83,0,1,1,15,2.17,12.82,12.82,0,0,1,27.83,15ZM30,15A15,15,0,1,1,15,0,15,15,0,0,1,30,15ZM23.28,8.28a1.56,1.56,0,1,1-1.56-1.56A1.56,1.56,0,0,1,23.28,8.28ZM10.49,16.21a4.67,4.67,0,1,0,3.3-5.72A4.67,4.67,0,0,0,10.49,16.21Zm-2.09.56A6.83,6.83,0,1,0,13.23,8.4,6.82,6.82,0,0,0,8.4,16.77Z"/><path class="cls-2" d="M41.85,25.68H38v-6.1h3.83q.69,2.49,2.58,2.49c.91,0,1.37-.41,1.37-1.23a1.36,1.36,0,0,0-.48-1.07,10.91,10.91,0,0,0-2.16-1.29,19.33,19.33,0,0,1-3.06-1.81,5.76,5.76,0,0,1-1.56-1.93,5.67,5.67,0,0,1-.65-2.7A5.47,5.47,0,0,1,39.43,7.9a5.19,5.19,0,0,1,3.76-1.49A5.37,5.37,0,0,1,47,7.83V6.66h3.85v5.41H47c-.46-1.49-1.29-2.24-2.47-2.24-.83,0-1.24.39-1.24,1.19a1,1,0,0,0,.35.86,19.67,19.67,0,0,0,2.21,1.33,32.82,32.82,0,0,1,3.35,2,4.34,4.34,0,0,1,.87.89,5.81,5.81,0,0,1,.74,1.16,6.38,6.38,0,0,1,.68,2.9,5.61,5.61,0,0,1-1.59,4,5.29,5.29,0,0,1-4,1.68,6.22,6.22,0,0,1-4.07-1.49Z"/><path class="cls-2" d="M53.61,19A6.42,6.42,0,0,1,55.81,14a8.45,8.45,0,0,1,5.94-2A9.35,9.35,0,0,1,67.87,14,6.26,6.26,0,0,1,70.23,19a6.45,6.45,0,0,1-2.25,5,8.58,8.58,0,0,1-5.94,2,8.92,8.92,0,0,1-6.21-2A6.52,6.52,0,0,1,53.61,19Zm6.22,0c0,2.12.67,3.18,2,3.18S64,21.11,64,19a4.14,4.14,0,0,0-.53-2.27A1.71,1.71,0,0,0,62,15.9a1.84,1.84,0,0,0-1.56.79A3.86,3.86,0,0,0,59.83,19Z"/><path class="cls-2" d="M83.08,20.24l4.58,1.14a5.65,5.65,0,0,1-2.46,3.45,10,10,0,0,1-10.64-.66,6.39,6.39,0,0,1-2.15-5.06,6.67,6.67,0,0,1,2-5,6.85,6.85,0,0,1,5-1.94,6,6,0,0,1,3.92,1.13v-.89h3.75v5.66H83.34c-.47-1.51-1.25-2.27-2.36-2.27a2,2,0,0,0-1.74,1,4.6,4.6,0,0,0-.61,2.42,4,4,0,0,0,.66,2.43,2,2,0,0,0,1.69.89Q82.69,22.52,83.08,20.24Z"/><path class="cls-2" d="M90.62,30.59l1.69-3.37a9.09,9.09,0,0,0,3.84.67,5.16,5.16,0,0,0,2.48-.5,2.37,2.37,0,0,0,1.16-1.17,5.85,5.85,0,0,0,.24-1.9,8.17,8.17,0,0,1-4.12,1,6.33,6.33,0,0,1-4.47-1.69A6,6,0,0,1,89.6,19a6.64,6.64,0,0,1,1.91-5,6.42,6.42,0,0,1,4.62-1.84,6.93,6.93,0,0,1,3.9,1.09v-.85h7.6v4.17h-1.47v7.28a13.85,13.85,0,0,1-.4,3.75,4.85,4.85,0,0,1-1.44,2.24,6,6,0,0,1-2.6,1.39,15.25,15.25,0,0,1-4.12.46c-.77,0-1.45,0-2-.09s-1.28-.14-2.06-.27A14.16,14.16,0,0,1,90.62,30.59Zm5.2-11.46a3.48,3.48,0,0,0,.55,2,1.75,1.75,0,0,0,1.56.82,1.77,1.77,0,0,0,1.6-.83,3.68,3.68,0,0,0,.53-2,3.84,3.84,0,0,0-.56-2.17A1.78,1.78,0,0,0,98,16.08a1.73,1.73,0,0,0-1.59.89A3.94,3.94,0,0,0,95.82,19.13Z"/><path class="cls-2" d="M118.71,25.68h-9.56V21.51h1.61V16.58h-1.61V12.41h7.35v3.33a5.65,5.65,0,0,1,1.29-2.15,4,4,0,0,1,1.68-1.16,8.24,8.24,0,0,1,2.41-.26V18l-.51,0a6.84,6.84,0,0,0-2.8.43,2.45,2.45,0,0,0-1.29,1.14,4.67,4.67,0,0,0-.37,2h1.8Z"/><path class="cls-2" d="M127.71,16.12l-4.81-.55a4.89,4.89,0,0,1,2.56-2.75,13,13,0,0,1,5.16-.79c.84,0,1.59,0,2.26.09a13.26,13.26,0,0,1,1.77.27,5,5,0,0,1,2.41,1A4.07,4.07,0,0,1,138.15,15a8.31,8.31,0,0,1,.32,2.68v3.83H140v4.17h-7.66v-.9a7.16,7.16,0,0,1-4.25,1.14,5.24,5.24,0,0,1-3.78-1.23A3.88,3.88,0,0,1,123,21.78a3.65,3.65,0,0,1,1.57-3.05,6.62,6.62,0,0,1,4.09-1.19,8.26,8.26,0,0,1,3.65.67v-.4a6.18,6.18,0,0,0-.16-1.72,1.72,1.72,0,0,0-.76-.89,2.81,2.81,0,0,0-1.41-.35A2.53,2.53,0,0,0,127.71,16.12Zm4.61,6.17V19.87a3.31,3.31,0,0,0-1.74-.5,1.71,1.71,0,0,0-1.28.5,1.77,1.77,0,0,0-.48,1.28,1.81,1.81,0,0,0,.49,1.31,1.56,1.56,0,0,0,1.15.52A2.54,2.54,0,0,0,132.32,22.29Z"/><path class="cls-2" d="M151.07,25.68h-9.29V21.51h1.46V16.58h-1.49V12.41h7.65v1.82a8,8,0,0,1,2.31-1.45,6.83,6.83,0,0,1,2.72-.61,3.94,3.94,0,0,1,4,2.59A8.1,8.1,0,0,1,164,12.17a4.22,4.22,0,0,1,2.56.73,4.05,4.05,0,0,1,1.44,2,12.1,12.1,0,0,1,.43,3.61v3H170v4.17h-7.71V20A7.21,7.21,0,0,0,162,17.2a1.14,1.14,0,0,0-1.1-.55,3.11,3.11,0,0,0-2,.85v4h1.67v4.17h-7.82V20a8.46,8.46,0,0,0-.27-2.77,1.07,1.07,0,0,0-1.09-.58,3.2,3.2,0,0,0-2,.85v4h1.67Z"/></g></g></svg>